{"title":"The Losers 2010 Cam XviD-TA","uid":5526983,"size":922786154,"categoryP":"video","categoryS":"movies","magnet":"?xt=urn:btih:ee702bd1ce71d67b4cfae547f0962e0a380b6901&amp;dn=The+Losers+2010+Cam+XviD-TA&amp;tr=udp%3A%2F%2Ftracker.openbittorrent.com%3A80&amp;tr=udp%3A%2F%2Fopen.demonii.com%3A1337&amp;tr=udp%3A%2F%2Ftracker.coppersurfer.tk%3A6969&amp;tr=udp%3A%2F%2Fexodus.desync.com%3A6969","seeders":0,"leechers":1,"uploader":"MAFIAA.","files":-1,"time":1272807309,"description":"TiTLE......[ The Losers\nYEAR.......[ 2010\nGENRE......[ Action | Adventure | Crime | Mystery | Thriller\nRUNTiME....[ 1:29:39\niMDB RATE..[ User Rating: 7.0/10   1,665 votes\niMDB URL...[ http://www.imdb.com/title/tt0480255/\n\n\nSource : b0ngw4t3r (thanks)\nGeneral\nComplete name : The.Losers.2010.Cam.XviD.TA.avi\nFormat : AVI\nFormat/Info : Audio Video Interleave\nFile size : 839 MiB\nDuration : 1h 29mn\nOverall bit rate : 1 307 Kbps\nWriting library : VirtualDub build 32661/release\n\nVideo\nID : 0\nFormat : MPEG-4 Visual\nFormat profile : AdvancedSimple@L5\nFormat settings, BVOP : Yes\nFormat settings, QPel : No\nFormat settings, GMC : No warppoints\nFormat settings, Matrix : Default (H.263)\nMuxing mode : Packed bitstream\nCodec ID : XVID\nCodec ID/Hint : XviD\nDuration : 1h 29mn\nBit rate : 1 103 Kbps\nWidth : 656 pixels\nHeight : 368 pixels\nDisplay aspect ratio : 16:9\nFrame rate : 29.970 fps\nResolution : 24 bits\nColorimetry : 4:2:0\nScan type : Progressive\nBits/(Pixel*Frame) : 0.152\nStream size : 708 MiB (84%)\nWriting library : XviD 1.2.1 (UTC 2008-12-04)\n\nAudio\nID : 1\nFormat : MPEG Audio\nFormat version : Version 1\nFormat profile : Layer 3\nCodec ID : 55\nCodec ID/Hint : MP3\nDuration : 1h 29mn\nBit rate mode : Constant\nBit rate : 192 Kbps\nChannel(s) : 2 channels\nSampling rate : 44.1 KHz\nResolution : 16 bits\nVideo delay : 26ms\nStream size : 123 MiB (15%)\nAlignment : Split accross interleaves\nInterleave, duration : 33 ms (1.00 video frame)\nInterleave, preload duration : 500 ms\n\n\nSCREENS:\nhttp://bayimg.com/FaMNlaAcE\n\n----------------------------------------------------------------------------------\n----------------------------------------------------------------------------------\n\nFor more movie information or upcoming movies join channel #NP (irc.efnet.nl)","torrent":{"xt":"urn:btih:ee702bd1ce71d67b4cfae547f0962e0a380b6901","amp;dn":"The+Losers+2010+Cam+XviD-TA","amp;tr":["udp%3A%2F%2Ftracker.openbittorrent.com%3A80","udp%3A%2F%2Fopen.demonii.com%3A1337","udp%3A%2F%2Ftracker.coppersurfer.tk%3A6969","udp%3A%2F%2Fexodus.desync.com%3A6969"],"infoHash":"ee702bd1ce71d67b4cfae547f0962e0a380b6901","infoHashBuffer":{"type":"Buffer","data":[238,112,43,209,206,113,214,123,76,250,229,71,240,150,46,10,56,11,105,1]},"announce":[],"urlList":[]}}